G04 #@! TF.GenerationSoftware,KiCad,Pcbnew,(5.1.5)-3*
G04 #@! TF.CreationDate,2020-10-16T21:55:23+02:00*
G04 #@! TF.ProjectId,_Level,b54c6576-656c-42e6-9b69-6361645f7063,rev?*
G04 #@! TF.SameCoordinates,Original*
G04 #@! TF.FileFunction,Copper,L2,Bot*
G04 #@! TF.FilePolarity,Positive*
%FSLAX46Y46*%
G04 Gerber Fmt 4.6, Leading zero omitted, Abs format (unit mm)*
G04 Created by KiCad (PCBNEW (5.1.5)-3) date 2020-10-16 21:55:23*
%MOMM*%
%LPD*%
G04 APERTURE LIST*
%ADD10C,0.100000*%
%ADD11C,4.400000*%
%ADD12C,0.127000*%
%ADD13O,1.700000X1.700000*%
%ADD14R,1.700000X1.700000*%
%ADD15C,0.450000*%
%ADD16C,0.127000*%
G04 APERTURE END LIST*
D10*
G36*
X151960200Y-74456500D02*
G01*
X151587200Y-74456500D01*
X151587200Y-74583500D01*
X151960200Y-74583500D01*
X151960200Y-74456500D01*
G37*
G36*
X153230200Y-74485500D02*
G01*
X152857200Y-74485500D01*
X152857200Y-74612500D01*
X153230200Y-74612500D01*
X153230200Y-74485500D01*
G37*
D11*
X138000000Y-67000000D03*
X172000000Y-113000000D03*
X172000000Y-67000000D03*
X138000000Y-113000000D03*
D12*
X151960200Y-74520000D03*
X151574500Y-74520000D03*
X153230200Y-74549000D03*
X152844500Y-74549000D03*
D13*
X158690000Y-72410000D03*
X156150000Y-72410000D03*
X153610000Y-72410000D03*
D14*
X151070000Y-72410000D03*
D15*
X152400000Y-74520000D03*
D16*
X151960200Y-74520000D02*
X152400000Y-74520000D01*
X155300001Y-71560001D02*
X156150000Y-72410000D01*
X155109499Y-71369499D02*
X155300001Y-71560001D01*
X153110559Y-71369499D02*
X155109499Y-71369499D01*
X152400000Y-72080058D02*
X153110559Y-71369499D01*
X152400000Y-74520000D02*
X152400000Y-72080058D01*
X152844500Y-74638802D02*
X152844500Y-74549000D01*
X152844500Y-74690442D02*
X152844500Y-74638802D01*
X152908000Y-88773000D02*
X152654000Y-88773000D01*
X152908000Y-74930000D02*
X152908000Y-88773000D01*
X153162000Y-74930000D02*
X152908000Y-74930000D01*
X153162000Y-88265000D02*
X153162000Y-74930000D01*
X153416000Y-88265000D02*
X153162000Y-88265000D01*
X153416000Y-74930000D02*
X153416000Y-88265000D01*
X153670000Y-87884000D02*
X153670000Y-74930000D01*
X153924000Y-87884000D02*
X153670000Y-87884000D01*
X153924000Y-74930000D02*
X153924000Y-87884000D01*
X154178000Y-74930000D02*
X153924000Y-74930000D01*
X154178000Y-87630000D02*
X154178000Y-74930000D01*
X154432000Y-87630000D02*
X154178000Y-87630000D01*
X155448000Y-74930000D02*
X155448000Y-87630000D01*
X155702000Y-87630000D02*
X155702000Y-74930000D01*
X155956000Y-87630000D02*
X155702000Y-87630000D01*
X155956000Y-74930000D02*
X155956000Y-87630000D01*
X156718000Y-88138000D02*
X156718000Y-74930000D01*
X156972000Y-74930000D02*
X156972000Y-88138000D01*
X157226000Y-89027000D02*
X157226000Y-74930000D01*
X157480000Y-89027000D02*
X157226000Y-89027000D01*
X157480000Y-74930000D02*
X157480000Y-89027000D01*
X157734000Y-74930000D02*
X157480000Y-74930000D01*
X157734000Y-109220000D02*
X157734000Y-74930000D01*
X157988000Y-109220000D02*
X157734000Y-109220000D01*
X157988000Y-74930000D02*
X157988000Y-109220000D01*
X158242000Y-74930000D02*
X157988000Y-74930000D01*
X158242000Y-109220000D02*
X158242000Y-74930000D01*
X152654000Y-74880942D02*
X152844500Y-74690442D01*
X158496000Y-109220000D02*
X158242000Y-109220000D01*
X158496000Y-74930000D02*
X158496000Y-109220000D01*
X158750000Y-74930000D02*
X158496000Y-74930000D01*
X158750000Y-109220000D02*
X158750000Y-74930000D01*
X159004000Y-109220000D02*
X158750000Y-109220000D01*
X159004000Y-74930000D02*
X159004000Y-109220000D01*
X159258000Y-74930000D02*
X159004000Y-74930000D01*
X159258000Y-109220000D02*
X159258000Y-74930000D01*
X159512000Y-109220000D02*
X159258000Y-109220000D01*
X159512000Y-74930000D02*
X159512000Y-109220000D01*
X159766000Y-74930000D02*
X159512000Y-74930000D01*
X159766000Y-109220000D02*
X159766000Y-74930000D01*
X160020000Y-109220000D02*
X159766000Y-109220000D01*
X160020000Y-74930000D02*
X160020000Y-109220000D01*
X160274000Y-74930000D02*
X160020000Y-74930000D01*
X160274000Y-109220000D02*
X160274000Y-74930000D01*
X160528000Y-109220000D02*
X160274000Y-109220000D01*
X160528000Y-74930000D02*
X160528000Y-109220000D01*
X160782000Y-74930000D02*
X160528000Y-74930000D01*
X160782000Y-109220000D02*
X160782000Y-74930000D01*
X161036000Y-109220000D02*
X160782000Y-109220000D01*
X161036000Y-74930000D02*
X161036000Y-109220000D01*
X161290000Y-74930000D02*
X161036000Y-74930000D01*
X161290000Y-109220000D02*
X161290000Y-74930000D01*
X161544000Y-109220000D02*
X161290000Y-109220000D01*
X161544000Y-74930000D02*
X161544000Y-109220000D01*
X161798000Y-74930000D02*
X161544000Y-74930000D01*
X161798000Y-109220000D02*
X161798000Y-74930000D01*
X162052000Y-109220000D02*
X161798000Y-109220000D01*
X162052000Y-74930000D02*
X162052000Y-109220000D01*
X162306000Y-74930000D02*
X162052000Y-74930000D01*
X162306000Y-109220000D02*
X162306000Y-74930000D01*
X162560000Y-109220000D02*
X162306000Y-109220000D01*
X162560000Y-74930000D02*
X162560000Y-109220000D01*
X162814000Y-74930000D02*
X162560000Y-74930000D01*
X162814000Y-109220000D02*
X162814000Y-74930000D01*
X163068000Y-109220000D02*
X162814000Y-109220000D01*
X154432000Y-74930000D02*
X154432000Y-87630000D01*
X163068000Y-74930000D02*
X163068000Y-109220000D01*
X163322000Y-74930000D02*
X163068000Y-74930000D01*
X163322000Y-109220000D02*
X163322000Y-74930000D01*
X163576000Y-109220000D02*
X163322000Y-109220000D01*
X163576000Y-74930000D02*
X163576000Y-109220000D01*
X163830000Y-74930000D02*
X163576000Y-74930000D01*
X163830000Y-109220000D02*
X163830000Y-74930000D01*
X164084000Y-109220000D02*
X163830000Y-109220000D01*
X152654000Y-88773000D02*
X152654000Y-74880942D01*
X164084000Y-70485000D02*
X164084000Y-109220000D01*
X153670000Y-74930000D02*
X153416000Y-74930000D01*
X164338000Y-70485000D02*
X164084000Y-70485000D01*
X164338000Y-109220000D02*
X164338000Y-70485000D01*
X164592000Y-109220000D02*
X164338000Y-109220000D01*
X164592000Y-70485000D02*
X164592000Y-109220000D01*
X164846000Y-70485000D02*
X164592000Y-70485000D01*
X164846000Y-109220000D02*
X164846000Y-70485000D01*
X165100000Y-109220000D02*
X164846000Y-109220000D01*
X165100000Y-70485000D02*
X165100000Y-109220000D01*
X165354000Y-70485000D02*
X165100000Y-70485000D01*
X165354000Y-109220000D02*
X165354000Y-70485000D01*
X165608000Y-109220000D02*
X165354000Y-109220000D01*
X165608000Y-70485000D02*
X165608000Y-109220000D01*
X165862000Y-70485000D02*
X165608000Y-70485000D01*
X165862000Y-109220000D02*
X165862000Y-70485000D01*
X166116000Y-109220000D02*
X165862000Y-109220000D01*
X166116000Y-70485000D02*
X166116000Y-109220000D01*
X166370000Y-70485000D02*
X166116000Y-70485000D01*
X166370000Y-109220000D02*
X166370000Y-70485000D01*
X166624000Y-109220000D02*
X166370000Y-109220000D01*
X166624000Y-70485000D02*
X166624000Y-109220000D01*
X166878000Y-70485000D02*
X166624000Y-70485000D01*
X166878000Y-109220000D02*
X166878000Y-70485000D01*
X167132000Y-109220000D02*
X166878000Y-109220000D01*
X167132000Y-70485000D02*
X167132000Y-109220000D01*
X167386000Y-70485000D02*
X167132000Y-70485000D01*
X167386000Y-109220000D02*
X167386000Y-70485000D01*
X167640000Y-109220000D02*
X167386000Y-109220000D01*
X167640000Y-70485000D02*
X167640000Y-109220000D01*
X167894000Y-70485000D02*
X167640000Y-70485000D01*
X167894000Y-109220000D02*
X167894000Y-70485000D01*
X168148000Y-109220000D02*
X167894000Y-109220000D01*
X168148000Y-70485000D02*
X168148000Y-109220000D01*
X168402000Y-70485000D02*
X168148000Y-70485000D01*
X168402000Y-109220000D02*
X168402000Y-70485000D01*
X168656000Y-109220000D02*
X168402000Y-109220000D01*
X168656000Y-70485000D02*
X168656000Y-109220000D01*
X168910000Y-70485000D02*
X168656000Y-70485000D01*
X168910000Y-109220000D02*
X168910000Y-70485000D01*
X169164000Y-109220000D02*
X168910000Y-109220000D01*
X169164000Y-70485000D02*
X169164000Y-109220000D01*
X169418000Y-70485000D02*
X169164000Y-70485000D01*
X169418000Y-109220000D02*
X169418000Y-70485000D01*
X169672000Y-109220000D02*
X169418000Y-109220000D01*
X169672000Y-70485000D02*
X169672000Y-109220000D01*
X169926000Y-70485000D02*
X169672000Y-70485000D01*
X169926000Y-109220000D02*
X169926000Y-70485000D01*
X170180000Y-109220000D02*
X169926000Y-109220000D01*
X170180000Y-70485000D02*
X170180000Y-109220000D01*
X170434000Y-70485000D02*
X170180000Y-70485000D01*
X170434000Y-109220000D02*
X170434000Y-70485000D01*
X170688000Y-109220000D02*
X170434000Y-109220000D01*
X170688000Y-70485000D02*
X170688000Y-109220000D01*
X170942000Y-70485000D02*
X170688000Y-70485000D01*
X170942000Y-109220000D02*
X170942000Y-70485000D01*
X171196000Y-109220000D02*
X170942000Y-109220000D01*
X171196000Y-70485000D02*
X171196000Y-109220000D01*
X171450000Y-70485000D02*
X171196000Y-70485000D01*
X171450000Y-109220000D02*
X171450000Y-70485000D01*
X171704000Y-109220000D02*
X171450000Y-109220000D01*
X171704000Y-70485000D02*
X171704000Y-109220000D01*
X171958000Y-70485000D02*
X171704000Y-70485000D01*
X171958000Y-109220000D02*
X171958000Y-70485000D01*
X172212000Y-109220000D02*
X171958000Y-109220000D01*
X172212000Y-70485000D02*
X172212000Y-109220000D01*
X172466000Y-70485000D02*
X172212000Y-70485000D01*
X146685000Y-75184000D02*
X146685000Y-109474000D01*
X146431000Y-109474000D02*
X146431000Y-75184000D01*
X146177000Y-109474000D02*
X146431000Y-109474000D01*
X145669000Y-109474000D02*
X145923000Y-109474000D01*
X145669000Y-72136000D02*
X145669000Y-109474000D01*
X145415000Y-72136000D02*
X145669000Y-72136000D01*
X145415000Y-109474000D02*
X145415000Y-72136000D01*
X145161000Y-109474000D02*
X145415000Y-109474000D01*
X145161000Y-72136000D02*
X145161000Y-109474000D01*
X144907000Y-109474000D02*
X144907000Y-72136000D01*
X144653000Y-109474000D02*
X144907000Y-109474000D01*
X144653000Y-72136000D02*
X144653000Y-109474000D01*
X144399000Y-72136000D02*
X144653000Y-72136000D01*
X143891000Y-72136000D02*
X144145000Y-72136000D01*
X143891000Y-109474000D02*
X143891000Y-72136000D01*
X143637000Y-72136000D02*
X143637000Y-109474000D01*
X156464000Y-87884000D02*
X156210000Y-87884000D01*
X143129000Y-109474000D02*
X143383000Y-109474000D01*
X172720000Y-109220000D02*
X172466000Y-109220000D01*
X143129000Y-72136000D02*
X143129000Y-109474000D01*
X142875000Y-72136000D02*
X143129000Y-72136000D01*
X142875000Y-109474000D02*
X142875000Y-72136000D01*
X142621000Y-109474000D02*
X142875000Y-109474000D01*
X142621000Y-72136000D02*
X142621000Y-109474000D01*
X142367000Y-72136000D02*
X142621000Y-72136000D01*
X155448000Y-87630000D02*
X155194000Y-87630000D01*
X142367000Y-109474000D02*
X142367000Y-72136000D01*
X143383000Y-72136000D02*
X143637000Y-72136000D01*
X156464000Y-74930000D02*
X156464000Y-87884000D01*
X142113000Y-109474000D02*
X142367000Y-109474000D01*
X154940000Y-74930000D02*
X154940000Y-87630000D01*
X142113000Y-72136000D02*
X142113000Y-109474000D01*
X173482000Y-70485000D02*
X173228000Y-70485000D01*
X141859000Y-72136000D02*
X142113000Y-72136000D01*
X141859000Y-109474000D02*
X141859000Y-72136000D01*
X156718000Y-74930000D02*
X156464000Y-74930000D01*
X141605000Y-109474000D02*
X141859000Y-109474000D01*
X156210000Y-74930000D02*
X155956000Y-74930000D01*
X141605000Y-72136000D02*
X141605000Y-109474000D01*
X141351000Y-72136000D02*
X141605000Y-72136000D01*
X141351000Y-109474000D02*
X141351000Y-72136000D01*
X144145000Y-72136000D02*
X144145000Y-109474000D01*
X155702000Y-74930000D02*
X155448000Y-74930000D01*
X141097000Y-109474000D02*
X141351000Y-109474000D01*
X141097000Y-72136000D02*
X141097000Y-109474000D01*
X140843000Y-72136000D02*
X141097000Y-72136000D01*
X156210000Y-87884000D02*
X156210000Y-74930000D01*
X140843000Y-109474000D02*
X140843000Y-72136000D01*
X140589000Y-109474000D02*
X140843000Y-109474000D01*
X172720000Y-70485000D02*
X172720000Y-109220000D01*
X140589000Y-72136000D02*
X140589000Y-109474000D01*
X140335000Y-72136000D02*
X140589000Y-72136000D01*
X172974000Y-109220000D02*
X172974000Y-70485000D01*
X137287000Y-109474000D02*
X137287000Y-72136000D01*
X146431000Y-75184000D02*
X146685000Y-75184000D01*
X155194000Y-74930000D02*
X154940000Y-74930000D01*
X140081000Y-109474000D02*
X140335000Y-109474000D01*
X137033000Y-72136000D02*
X137033000Y-109474000D01*
X155194000Y-87630000D02*
X155194000Y-74930000D01*
X136779000Y-72136000D02*
X137033000Y-72136000D01*
X136779000Y-109474000D02*
X136779000Y-72136000D01*
X154686000Y-87630000D02*
X154686000Y-74930000D01*
X136525000Y-109474000D02*
X136779000Y-109474000D01*
X136525000Y-72136000D02*
X136525000Y-109474000D01*
X136271000Y-109474000D02*
X136271000Y-72136000D01*
X136017000Y-109474000D02*
X136271000Y-109474000D01*
X146177000Y-75184000D02*
X146177000Y-109474000D01*
X144399000Y-109474000D02*
X144399000Y-72136000D01*
X149069000Y-74520000D02*
X148590000Y-74041000D01*
X139319000Y-109474000D02*
X139319000Y-72136000D01*
X136017000Y-72136000D02*
X136017000Y-109474000D01*
X135509000Y-71501000D02*
X135451510Y-71558490D01*
X138557000Y-72136000D02*
X138557000Y-109474000D01*
X137541000Y-71501000D02*
X135509000Y-71501000D01*
X145923000Y-109474000D02*
X145923000Y-75184000D01*
X157226000Y-74930000D02*
X156972000Y-74930000D01*
X135451510Y-71558490D02*
X135451510Y-109474000D01*
X147828000Y-70612000D02*
X138430000Y-70612000D01*
X144145000Y-109474000D02*
X144399000Y-109474000D01*
X140081000Y-72136000D02*
X140081000Y-109474000D01*
X136271000Y-72136000D02*
X136525000Y-72136000D01*
X173228000Y-70485000D02*
X173228000Y-109220000D01*
X135763000Y-72136000D02*
X136017000Y-72136000D01*
X149733000Y-109474000D02*
X149987000Y-109474000D01*
X154940000Y-87630000D02*
X154686000Y-87630000D01*
X137033000Y-109474000D02*
X137287000Y-109474000D01*
X135451510Y-109474000D02*
X135763000Y-109474000D01*
X152019000Y-109474000D02*
X152019000Y-75184000D01*
X138049000Y-72136000D02*
X138049000Y-109474000D01*
X173228000Y-109220000D02*
X172974000Y-109220000D01*
X143637000Y-109474000D02*
X143891000Y-109474000D01*
X135763000Y-109474000D02*
X135763000Y-72136000D01*
X137287000Y-72136000D02*
X137541000Y-72136000D01*
X137541000Y-72136000D02*
X137541000Y-109474000D01*
X137541000Y-109474000D02*
X137795000Y-109474000D01*
X139573000Y-109474000D02*
X139827000Y-109474000D01*
X145923000Y-75184000D02*
X146177000Y-75184000D01*
X137795000Y-109474000D02*
X137795000Y-72136000D01*
X137795000Y-72136000D02*
X138049000Y-72136000D01*
X172466000Y-109220000D02*
X172466000Y-70485000D01*
X138049000Y-109474000D02*
X138303000Y-109474000D01*
X138303000Y-109474000D02*
X138303000Y-72136000D01*
X138811000Y-72136000D02*
X139065000Y-72136000D01*
X138303000Y-72136000D02*
X138557000Y-72136000D01*
X138557000Y-109474000D02*
X138811000Y-109474000D01*
X138811000Y-109474000D02*
X138811000Y-72136000D01*
X143383000Y-109474000D02*
X143383000Y-72136000D01*
X148463000Y-109474000D02*
X148463000Y-75184000D01*
X139065000Y-72136000D02*
X139065000Y-109474000D01*
X139065000Y-109474000D02*
X139319000Y-109474000D01*
X156972000Y-88138000D02*
X156718000Y-88138000D01*
X139319000Y-72136000D02*
X139573000Y-72136000D01*
X154686000Y-74930000D02*
X154432000Y-74930000D01*
X139573000Y-72136000D02*
X139573000Y-109474000D01*
X139827000Y-109474000D02*
X139827000Y-72136000D01*
X144907000Y-72136000D02*
X145161000Y-72136000D01*
X139827000Y-72136000D02*
X140081000Y-72136000D01*
X140335000Y-109474000D02*
X140335000Y-72136000D01*
X146685000Y-109474000D02*
X146939000Y-109474000D01*
X146939000Y-109474000D02*
X146939000Y-75184000D01*
X146939000Y-75184000D02*
X147193000Y-75184000D01*
X147193000Y-75184000D02*
X147193000Y-109474000D01*
X147193000Y-109474000D02*
X147447000Y-109474000D01*
X147447000Y-109474000D02*
X147447000Y-75184000D01*
X147447000Y-75184000D02*
X147701000Y-75184000D01*
X147701000Y-75184000D02*
X147701000Y-109474000D01*
X147701000Y-109474000D02*
X147955000Y-109474000D01*
X148590000Y-74041000D02*
X148590000Y-71374000D01*
X147955000Y-109474000D02*
X147955000Y-75184000D01*
X147955000Y-75184000D02*
X148209000Y-75184000D01*
X148209000Y-75184000D02*
X148209000Y-109474000D01*
X148209000Y-109474000D02*
X148463000Y-109474000D01*
X148463000Y-75184000D02*
X148717000Y-75184000D01*
X148717000Y-75184000D02*
X148717000Y-109474000D01*
X148717000Y-109474000D02*
X148971000Y-109474000D01*
X148971000Y-109474000D02*
X148971000Y-75184000D01*
X148971000Y-75184000D02*
X149225000Y-75184000D01*
X149225000Y-75184000D02*
X149225000Y-109474000D01*
X149225000Y-109474000D02*
X149479000Y-109474000D01*
X151574500Y-74520000D02*
X149069000Y-74520000D01*
X149479000Y-109474000D02*
X149479000Y-75184000D01*
X148590000Y-71374000D02*
X147828000Y-70612000D01*
X149479000Y-75184000D02*
X149733000Y-75184000D01*
X149733000Y-75184000D02*
X149733000Y-109474000D01*
X149987000Y-109474000D02*
X149987000Y-75184000D01*
X149987000Y-75184000D02*
X150241000Y-75184000D01*
X150241000Y-75184000D02*
X150241000Y-109474000D01*
X150241000Y-109474000D02*
X150495000Y-109474000D01*
X150495000Y-109474000D02*
X150495000Y-75184000D01*
X150495000Y-75184000D02*
X150749000Y-75184000D01*
X150749000Y-75184000D02*
X150749000Y-109474000D01*
X138430000Y-70612000D02*
X137541000Y-71501000D01*
X150749000Y-109474000D02*
X151003000Y-109474000D01*
X151003000Y-109474000D02*
X151003000Y-75184000D01*
X151003000Y-75184000D02*
X151257000Y-75184000D01*
X151257000Y-75184000D02*
X151257000Y-109474000D01*
X151257000Y-109474000D02*
X151511000Y-109474000D01*
X151511000Y-109474000D02*
X151511000Y-75184000D01*
X151511000Y-75184000D02*
X151765000Y-75184000D01*
X151765000Y-75184000D02*
X151765000Y-109474000D01*
X151765000Y-109474000D02*
X152019000Y-109474000D01*
X152019000Y-75184000D02*
X152273000Y-75184000D01*
X152273000Y-75184000D02*
X152273000Y-109474000D01*
X152273000Y-109474000D02*
X152527000Y-109474000D01*
X152527000Y-109474000D02*
X152527000Y-90932000D01*
X152527000Y-90932000D02*
X152781000Y-90932000D01*
X152781000Y-90932000D02*
X152781000Y-109474000D01*
X152781000Y-109474000D02*
X153035000Y-109474000D01*
X153035000Y-109474000D02*
X153035000Y-91694000D01*
X153035000Y-91694000D02*
X153289000Y-91694000D01*
X153289000Y-91694000D02*
X153289000Y-109474000D01*
X153289000Y-109474000D02*
X153543000Y-109474000D01*
X153543000Y-109474000D02*
X153543000Y-92075000D01*
X153543000Y-92075000D02*
X153797000Y-92075000D01*
X153797000Y-92075000D02*
X153797000Y-109474000D01*
X153797000Y-109474000D02*
X154051000Y-109474000D01*
X154051000Y-109474000D02*
X154051000Y-92329000D01*
X154051000Y-92329000D02*
X154305000Y-92329000D01*
X154305000Y-92329000D02*
X154305000Y-109474000D01*
X154305000Y-109474000D02*
X154559000Y-109474000D01*
X154559000Y-109474000D02*
X154559000Y-92456000D01*
X154559000Y-92456000D02*
X154813000Y-92456000D01*
X154813000Y-92456000D02*
X154813000Y-109474000D01*
X154813000Y-109474000D02*
X155067000Y-109474000D01*
X155067000Y-109474000D02*
X155067000Y-92456000D01*
X155067000Y-92456000D02*
X155321000Y-92456000D01*
X155321000Y-92456000D02*
X155321000Y-109474000D01*
X155321000Y-109474000D02*
X155575000Y-109474000D01*
X155575000Y-109474000D02*
X155575000Y-92456000D01*
X155575000Y-92456000D02*
X155829000Y-92456000D01*
X155829000Y-92456000D02*
X155829000Y-109474000D01*
X155829000Y-109474000D02*
X156083000Y-109474000D01*
X156083000Y-109474000D02*
X156083000Y-92456000D01*
X156083000Y-92456000D02*
X156337000Y-92456000D01*
X156337000Y-92456000D02*
X156337000Y-109474000D01*
X156337000Y-109474000D02*
X156591000Y-109474000D01*
X156591000Y-109474000D02*
X156591000Y-91948000D01*
X156591000Y-91948000D02*
X156845000Y-91948000D01*
X156845000Y-91948000D02*
X156845000Y-109474000D01*
X156845000Y-109474000D02*
X157099000Y-109474000D01*
X157099000Y-109474000D02*
X157099000Y-91440000D01*
X157099000Y-91440000D02*
X157353000Y-91440000D01*
X157353000Y-91440000D02*
X157353000Y-109548490D01*
X157353000Y-109548490D02*
X174498000Y-109548490D01*
X174498000Y-109548490D02*
X174498000Y-70485000D01*
X174498000Y-70485000D02*
X174244000Y-70485000D01*
X174244000Y-70485000D02*
X174244000Y-109220000D01*
X174244000Y-109220000D02*
X173990000Y-109220000D01*
X173990000Y-109220000D02*
X173990000Y-70485000D01*
X173990000Y-70485000D02*
X173736000Y-70485000D01*
X173736000Y-70485000D02*
X173736000Y-109220000D01*
X173736000Y-109220000D02*
X173482000Y-109220000D01*
X173482000Y-109220000D02*
X173482000Y-70485000D01*
X172974000Y-70485000D02*
X172720000Y-70485000D01*
X153230200Y-74549000D02*
X153416000Y-74549000D01*
X153610000Y-74355000D02*
X153610000Y-72410000D01*
X153416000Y-74549000D02*
X153610000Y-74355000D01*
M02*
