G04 #@! TF.GenerationSoftware,KiCad,Pcbnew,(5.1.5)-3*
G04 #@! TF.CreationDate,2020-10-16T21:55:23+02:00*
G04 #@! TF.ProjectId,_Level,b54c6576-656c-42e6-9b69-6361645f7063,rev?*
G04 #@! TF.SameCoordinates,Original*
G04 #@! TF.FileFunction,Copper,L1,Top*
G04 #@! TF.FilePolarity,Positive*
%FSLAX46Y46*%
G04 Gerber Fmt 4.6, Leading zero omitted, Abs format (unit mm)*
G04 Created by KiCad (PCBNEW (5.1.5)-3) date 2020-10-16 21:55:23*
%MOMM*%
%LPD*%
G04 APERTURE LIST*
%ADD10C,0.100000*%
%ADD11C,4.400000*%
%ADD12C,0.127000*%
%ADD13O,1.700000X1.700000*%
%ADD14R,1.700000X1.700000*%
%ADD15C,0.450000*%
%ADD16C,0.127000*%
%ADD17C,0.250000*%
G04 APERTURE END LIST*
D10*
G36*
X137195200Y-71563500D02*
G01*
X136822200Y-71563500D01*
X136822200Y-71436500D01*
X137195200Y-71436500D01*
X137195200Y-71563500D01*
G37*
D11*
X138000000Y-67000000D03*
X172000000Y-113000000D03*
X172000000Y-67000000D03*
X138000000Y-113000000D03*
D12*
X137195200Y-71500000D03*
X136809500Y-71500000D03*
D13*
X158690000Y-72410000D03*
X156150000Y-72410000D03*
X153610000Y-72410000D03*
D14*
X151070000Y-72410000D03*
G04 #@! TA.AperFunction,SMDPad,CuDef*
D10*
G36*
X162974505Y-71401204D02*
G01*
X162998773Y-71404804D01*
X163022572Y-71410765D01*
X163045671Y-71419030D01*
X163067850Y-71429520D01*
X163088893Y-71442132D01*
X163108599Y-71456747D01*
X163126777Y-71473223D01*
X163143253Y-71491401D01*
X163157868Y-71511107D01*
X163170480Y-71532150D01*
X163180970Y-71554329D01*
X163189235Y-71577428D01*
X163195196Y-71601227D01*
X163198796Y-71625495D01*
X163200000Y-71649999D01*
X163200000Y-72300001D01*
X163198796Y-72324505D01*
X163195196Y-72348773D01*
X163189235Y-72372572D01*
X163180970Y-72395671D01*
X163170480Y-72417850D01*
X163157868Y-72438893D01*
X163143253Y-72458599D01*
X163126777Y-72476777D01*
X163108599Y-72493253D01*
X163088893Y-72507868D01*
X163067850Y-72520480D01*
X163045671Y-72530970D01*
X163022572Y-72539235D01*
X162998773Y-72545196D01*
X162974505Y-72548796D01*
X162950001Y-72550000D01*
X162049999Y-72550000D01*
X162025495Y-72548796D01*
X162001227Y-72545196D01*
X161977428Y-72539235D01*
X161954329Y-72530970D01*
X161932150Y-72520480D01*
X161911107Y-72507868D01*
X161891401Y-72493253D01*
X161873223Y-72476777D01*
X161856747Y-72458599D01*
X161842132Y-72438893D01*
X161829520Y-72417850D01*
X161819030Y-72395671D01*
X161810765Y-72372572D01*
X161804804Y-72348773D01*
X161801204Y-72324505D01*
X161800000Y-72300001D01*
X161800000Y-71649999D01*
X161801204Y-71625495D01*
X161804804Y-71601227D01*
X161810765Y-71577428D01*
X161819030Y-71554329D01*
X161829520Y-71532150D01*
X161842132Y-71511107D01*
X161856747Y-71491401D01*
X161873223Y-71473223D01*
X161891401Y-71456747D01*
X161911107Y-71442132D01*
X161932150Y-71429520D01*
X161954329Y-71419030D01*
X161977428Y-71410765D01*
X162001227Y-71404804D01*
X162025495Y-71401204D01*
X162049999Y-71400000D01*
X162950001Y-71400000D01*
X162974505Y-71401204D01*
G37*
G04 #@! TD.AperFunction*
G04 #@! TA.AperFunction,SMDPad,CuDef*
G36*
X162974505Y-73451204D02*
G01*
X162998773Y-73454804D01*
X163022572Y-73460765D01*
X163045671Y-73469030D01*
X163067850Y-73479520D01*
X163088893Y-73492132D01*
X163108599Y-73506747D01*
X163126777Y-73523223D01*
X163143253Y-73541401D01*
X163157868Y-73561107D01*
X163170480Y-73582150D01*
X163180970Y-73604329D01*
X163189235Y-73627428D01*
X163195196Y-73651227D01*
X163198796Y-73675495D01*
X163200000Y-73699999D01*
X163200000Y-74350001D01*
X163198796Y-74374505D01*
X163195196Y-74398773D01*
X163189235Y-74422572D01*
X163180970Y-74445671D01*
X163170480Y-74467850D01*
X163157868Y-74488893D01*
X163143253Y-74508599D01*
X163126777Y-74526777D01*
X163108599Y-74543253D01*
X163088893Y-74557868D01*
X163067850Y-74570480D01*
X163045671Y-74580970D01*
X163022572Y-74589235D01*
X162998773Y-74595196D01*
X162974505Y-74598796D01*
X162950001Y-74600000D01*
X162049999Y-74600000D01*
X162025495Y-74598796D01*
X162001227Y-74595196D01*
X161977428Y-74589235D01*
X161954329Y-74580970D01*
X161932150Y-74570480D01*
X161911107Y-74557868D01*
X161891401Y-74543253D01*
X161873223Y-74526777D01*
X161856747Y-74508599D01*
X161842132Y-74488893D01*
X161829520Y-74467850D01*
X161819030Y-74445671D01*
X161810765Y-74422572D01*
X161804804Y-74398773D01*
X161801204Y-74374505D01*
X161800000Y-74350001D01*
X161800000Y-73699999D01*
X161801204Y-73675495D01*
X161804804Y-73651227D01*
X161810765Y-73627428D01*
X161819030Y-73604329D01*
X161829520Y-73582150D01*
X161842132Y-73561107D01*
X161856747Y-73541401D01*
X161873223Y-73523223D01*
X161891401Y-73506747D01*
X161911107Y-73492132D01*
X161932150Y-73479520D01*
X161954329Y-73469030D01*
X161977428Y-73460765D01*
X162001227Y-73454804D01*
X162025495Y-73451204D01*
X162049999Y-73450000D01*
X162950001Y-73450000D01*
X162974505Y-73451204D01*
G37*
G04 #@! TD.AperFunction*
G04 #@! TA.AperFunction,SMDPad,CuDef*
G36*
X147474505Y-73451204D02*
G01*
X147498773Y-73454804D01*
X147522572Y-73460765D01*
X147545671Y-73469030D01*
X147567850Y-73479520D01*
X147588893Y-73492132D01*
X147608599Y-73506747D01*
X147626777Y-73523223D01*
X147643253Y-73541401D01*
X147657868Y-73561107D01*
X147670480Y-73582150D01*
X147680970Y-73604329D01*
X147689235Y-73627428D01*
X147695196Y-73651227D01*
X147698796Y-73675495D01*
X147700000Y-73699999D01*
X147700000Y-74350001D01*
X147698796Y-74374505D01*
X147695196Y-74398773D01*
X147689235Y-74422572D01*
X147680970Y-74445671D01*
X147670480Y-74467850D01*
X147657868Y-74488893D01*
X147643253Y-74508599D01*
X147626777Y-74526777D01*
X147608599Y-74543253D01*
X147588893Y-74557868D01*
X147567850Y-74570480D01*
X147545671Y-74580970D01*
X147522572Y-74589235D01*
X147498773Y-74595196D01*
X147474505Y-74598796D01*
X147450001Y-74600000D01*
X146549999Y-74600000D01*
X146525495Y-74598796D01*
X146501227Y-74595196D01*
X146477428Y-74589235D01*
X146454329Y-74580970D01*
X146432150Y-74570480D01*
X146411107Y-74557868D01*
X146391401Y-74543253D01*
X146373223Y-74526777D01*
X146356747Y-74508599D01*
X146342132Y-74488893D01*
X146329520Y-74467850D01*
X146319030Y-74445671D01*
X146310765Y-74422572D01*
X146304804Y-74398773D01*
X146301204Y-74374505D01*
X146300000Y-74350001D01*
X146300000Y-73699999D01*
X146301204Y-73675495D01*
X146304804Y-73651227D01*
X146310765Y-73627428D01*
X146319030Y-73604329D01*
X146329520Y-73582150D01*
X146342132Y-73561107D01*
X146356747Y-73541401D01*
X146373223Y-73523223D01*
X146391401Y-73506747D01*
X146411107Y-73492132D01*
X146432150Y-73479520D01*
X146454329Y-73469030D01*
X146477428Y-73460765D01*
X146501227Y-73454804D01*
X146525495Y-73451204D01*
X146549999Y-73450000D01*
X147450001Y-73450000D01*
X147474505Y-73451204D01*
G37*
G04 #@! TD.AperFunction*
G04 #@! TA.AperFunction,SMDPad,CuDef*
G36*
X147474505Y-71401204D02*
G01*
X147498773Y-71404804D01*
X147522572Y-71410765D01*
X147545671Y-71419030D01*
X147567850Y-71429520D01*
X147588893Y-71442132D01*
X147608599Y-71456747D01*
X147626777Y-71473223D01*
X147643253Y-71491401D01*
X147657868Y-71511107D01*
X147670480Y-71532150D01*
X147680970Y-71554329D01*
X147689235Y-71577428D01*
X147695196Y-71601227D01*
X147698796Y-71625495D01*
X147700000Y-71649999D01*
X147700000Y-72300001D01*
X147698796Y-72324505D01*
X147695196Y-72348773D01*
X147689235Y-72372572D01*
X147680970Y-72395671D01*
X147670480Y-72417850D01*
X147657868Y-72438893D01*
X147643253Y-72458599D01*
X147626777Y-72476777D01*
X147608599Y-72493253D01*
X147588893Y-72507868D01*
X147567850Y-72520480D01*
X147545671Y-72530970D01*
X147522572Y-72539235D01*
X147498773Y-72545196D01*
X147474505Y-72548796D01*
X147450001Y-72550000D01*
X146549999Y-72550000D01*
X146525495Y-72548796D01*
X146501227Y-72545196D01*
X146477428Y-72539235D01*
X146454329Y-72530970D01*
X146432150Y-72520480D01*
X146411107Y-72507868D01*
X146391401Y-72493253D01*
X146373223Y-72476777D01*
X146356747Y-72458599D01*
X146342132Y-72438893D01*
X146329520Y-72417850D01*
X146319030Y-72395671D01*
X146310765Y-72372572D01*
X146304804Y-72348773D01*
X146301204Y-72324505D01*
X146300000Y-72300001D01*
X146300000Y-71649999D01*
X146301204Y-71625495D01*
X146304804Y-71601227D01*
X146310765Y-71577428D01*
X146319030Y-71554329D01*
X146329520Y-71532150D01*
X146342132Y-71511107D01*
X146356747Y-71491401D01*
X146373223Y-71473223D01*
X146391401Y-71456747D01*
X146411107Y-71442132D01*
X146432150Y-71429520D01*
X146454329Y-71419030D01*
X146477428Y-71410765D01*
X146501227Y-71404804D01*
X146525495Y-71401204D01*
X146549999Y-71400000D01*
X147450001Y-71400000D01*
X147474505Y-71401204D01*
G37*
G04 #@! TD.AperFunction*
D15*
X152400000Y-74520000D03*
D16*
X160305000Y-74025000D02*
X158690000Y-72410000D01*
X162500000Y-74025000D02*
X160305000Y-74025000D01*
X157075000Y-74025000D02*
X158690000Y-72410000D01*
X147000000Y-74025000D02*
X157075000Y-74025000D01*
X152527000Y-88646000D02*
X152527000Y-74633000D01*
X152781000Y-88646000D02*
X152527000Y-88646000D01*
X152781000Y-75057000D02*
X152781000Y-88646000D01*
X152824000Y-75014000D02*
X152781000Y-75057000D01*
X153095000Y-75014000D02*
X152824000Y-75014000D01*
X153095000Y-88222000D02*
X153095000Y-75014000D01*
X153349000Y-88222000D02*
X153095000Y-88222000D01*
X153603000Y-87841000D02*
X153603000Y-75014000D01*
X153857000Y-87841000D02*
X153603000Y-87841000D01*
X153857000Y-75014000D02*
X153857000Y-87841000D01*
X154111000Y-87714000D02*
X154111000Y-75014000D01*
X154619000Y-75014000D02*
X154365000Y-75014000D01*
X154873000Y-75014000D02*
X154873000Y-87587000D01*
X155127000Y-75014000D02*
X154873000Y-75014000D01*
X155381000Y-87587000D02*
X155127000Y-87587000D01*
X155381000Y-75014000D02*
X155381000Y-87587000D01*
X155635000Y-87714000D02*
X155635000Y-75014000D01*
X155889000Y-75014000D02*
X155889000Y-87714000D01*
X156397000Y-87841000D02*
X156143000Y-87841000D01*
X156397000Y-75014000D02*
X156397000Y-87841000D01*
X156651000Y-75014000D02*
X156397000Y-75014000D01*
X156651000Y-88095000D02*
X156651000Y-75014000D01*
X156905000Y-75014000D02*
X156905000Y-88095000D01*
X157159000Y-88984000D02*
X157159000Y-75014000D01*
X157413000Y-88984000D02*
X157159000Y-88984000D01*
X157413000Y-75014000D02*
X157413000Y-88984000D01*
X157667000Y-75014000D02*
X157413000Y-75014000D01*
X157667000Y-109304000D02*
X157667000Y-75014000D01*
X157921000Y-109304000D02*
X157667000Y-109304000D01*
X158175000Y-109304000D02*
X158175000Y-75014000D01*
X158429000Y-109304000D02*
X158175000Y-109304000D01*
X158429000Y-75014000D02*
X158429000Y-109304000D01*
X158937000Y-109304000D02*
X158683000Y-109304000D01*
X159191000Y-109304000D02*
X159191000Y-75014000D01*
X159445000Y-75014000D02*
X159445000Y-109304000D01*
X159699000Y-109304000D02*
X159699000Y-75014000D01*
X162493000Y-75014000D02*
X162493000Y-109304000D01*
X158175000Y-75014000D02*
X157921000Y-75014000D01*
X163255000Y-109304000D02*
X163255000Y-75014000D01*
X159191000Y-75014000D02*
X158937000Y-75014000D01*
X163509000Y-109304000D02*
X163255000Y-109304000D01*
X163509000Y-75014000D02*
X163509000Y-109304000D01*
X163763000Y-75014000D02*
X163509000Y-75014000D01*
X159445000Y-109304000D02*
X159191000Y-109304000D01*
X163763000Y-109304000D02*
X163763000Y-75014000D01*
X164017000Y-109304000D02*
X163763000Y-109304000D01*
X154365000Y-87714000D02*
X154111000Y-87714000D01*
X164017000Y-70451510D02*
X164017000Y-109304000D01*
X156905000Y-88095000D02*
X156651000Y-88095000D01*
X164271000Y-70451510D02*
X164017000Y-70451510D01*
X155127000Y-87587000D02*
X155127000Y-75014000D01*
X164271000Y-109304000D02*
X164271000Y-70451510D01*
X164525000Y-109304000D02*
X164271000Y-109304000D01*
X155635000Y-75014000D02*
X155381000Y-75014000D01*
X164525000Y-70451510D02*
X164525000Y-109304000D01*
X164779000Y-70451510D02*
X164525000Y-70451510D01*
X154619000Y-87587000D02*
X154619000Y-75014000D01*
X164779000Y-109304000D02*
X164779000Y-70451510D01*
X154873000Y-87587000D02*
X154619000Y-87587000D01*
X165033000Y-109304000D02*
X164779000Y-109304000D01*
X156143000Y-87841000D02*
X156143000Y-75014000D01*
X165033000Y-70451510D02*
X165033000Y-109304000D01*
X165287000Y-70451510D02*
X165033000Y-70451510D01*
X157159000Y-75014000D02*
X156905000Y-75014000D01*
X165287000Y-109304000D02*
X165287000Y-70451510D01*
X165541000Y-109304000D02*
X165287000Y-109304000D01*
X165541000Y-70451510D02*
X165541000Y-109304000D01*
X158683000Y-75014000D02*
X158429000Y-75014000D01*
X165795000Y-70451510D02*
X165541000Y-70451510D01*
X165795000Y-109304000D02*
X165795000Y-70451510D01*
X166049000Y-109304000D02*
X165795000Y-109304000D01*
X166049000Y-70451510D02*
X166049000Y-109304000D01*
X154365000Y-75014000D02*
X154365000Y-87714000D01*
X166303000Y-70451510D02*
X166049000Y-70451510D01*
X166303000Y-109304000D02*
X166303000Y-70451510D01*
X166557000Y-109304000D02*
X166303000Y-109304000D01*
X166557000Y-70451510D02*
X166557000Y-109304000D01*
X166811000Y-70451510D02*
X166557000Y-70451510D01*
X166811000Y-109304000D02*
X166811000Y-70451510D01*
X158683000Y-109304000D02*
X158683000Y-75014000D01*
X167065000Y-109304000D02*
X166811000Y-109304000D01*
X167065000Y-70451510D02*
X167065000Y-109304000D01*
X167319000Y-70451510D02*
X167065000Y-70451510D01*
X167319000Y-109304000D02*
X167319000Y-70451510D01*
X157921000Y-75014000D02*
X157921000Y-109304000D01*
X167573000Y-109304000D02*
X167319000Y-109304000D01*
X167573000Y-70451510D02*
X167573000Y-109304000D01*
X159699000Y-75014000D02*
X159445000Y-75014000D01*
X167827000Y-70451510D02*
X167573000Y-70451510D01*
X167827000Y-109304000D02*
X167827000Y-70451510D01*
X156143000Y-75014000D02*
X155889000Y-75014000D01*
X168081000Y-109304000D02*
X167827000Y-109304000D01*
X168081000Y-70451510D02*
X168081000Y-109304000D01*
X158937000Y-75014000D02*
X158937000Y-109304000D01*
X168335000Y-70451510D02*
X168081000Y-70451510D01*
X168335000Y-109304000D02*
X168335000Y-70451510D01*
X155889000Y-87714000D02*
X155635000Y-87714000D01*
X168589000Y-109304000D02*
X168335000Y-109304000D01*
X168589000Y-70451510D02*
X168589000Y-109304000D01*
X168843000Y-70451510D02*
X168589000Y-70451510D01*
X168843000Y-109304000D02*
X168843000Y-70451510D01*
X169097000Y-70451510D02*
X169097000Y-109304000D01*
X169351000Y-70451510D02*
X169097000Y-70451510D01*
X169605000Y-109304000D02*
X169351000Y-109304000D01*
X169605000Y-70451510D02*
X169605000Y-109304000D01*
X169859000Y-70451510D02*
X169605000Y-70451510D01*
X169859000Y-109304000D02*
X169859000Y-70451510D01*
X170113000Y-109304000D02*
X169859000Y-109304000D01*
X170113000Y-70451510D02*
X170113000Y-109304000D01*
X169097000Y-109304000D02*
X168843000Y-109304000D01*
X170367000Y-70451510D02*
X170113000Y-70451510D01*
X170367000Y-109304000D02*
X170367000Y-70451510D01*
X170621000Y-109304000D02*
X170367000Y-109304000D01*
X170621000Y-70451510D02*
X170621000Y-109304000D01*
X170875000Y-70451510D02*
X170621000Y-70451510D01*
X170875000Y-109304000D02*
X170875000Y-70451510D01*
X171129000Y-109304000D02*
X170875000Y-109304000D01*
X171129000Y-70451510D02*
X171129000Y-109304000D01*
X171383000Y-70451510D02*
X171129000Y-70451510D01*
X171383000Y-109304000D02*
X171383000Y-70451510D01*
X171637000Y-109304000D02*
X171383000Y-109304000D01*
X146872000Y-109431000D02*
X146872000Y-75141000D01*
X146110000Y-109431000D02*
X146364000Y-109431000D01*
X146110000Y-75141000D02*
X146110000Y-109431000D01*
X145856000Y-75141000D02*
X146110000Y-75141000D01*
X146364000Y-109431000D02*
X146364000Y-75141000D01*
X145602000Y-109431000D02*
X145856000Y-109431000D01*
X145602000Y-72220000D02*
X145602000Y-109431000D01*
X145348000Y-109431000D02*
X145348000Y-72220000D01*
X145094000Y-72220000D02*
X145094000Y-109431000D01*
X144840000Y-109431000D02*
X144840000Y-72220000D01*
X146872000Y-75141000D02*
X147126000Y-75141000D01*
X144586000Y-109431000D02*
X144840000Y-109431000D01*
X144586000Y-72220000D02*
X144586000Y-109431000D01*
X144332000Y-72220000D02*
X144586000Y-72220000D01*
X144332000Y-109431000D02*
X144332000Y-72220000D01*
X144078000Y-109431000D02*
X144332000Y-109431000D01*
X144078000Y-72220000D02*
X144078000Y-109431000D01*
X143824000Y-72220000D02*
X144078000Y-72220000D01*
X143824000Y-109431000D02*
X143824000Y-72220000D01*
X143570000Y-109431000D02*
X143824000Y-109431000D01*
X143570000Y-72220000D02*
X143570000Y-109431000D01*
X143316000Y-72220000D02*
X143570000Y-72220000D01*
X143316000Y-109431000D02*
X143316000Y-72220000D01*
X143062000Y-109431000D02*
X143316000Y-109431000D01*
X143062000Y-72220000D02*
X143062000Y-109431000D01*
X147126000Y-75141000D02*
X147126000Y-109431000D01*
X142808000Y-72220000D02*
X143062000Y-72220000D01*
X161731000Y-75014000D02*
X161477000Y-75014000D01*
X147126000Y-109431000D02*
X147380000Y-109431000D01*
X142808000Y-109431000D02*
X142808000Y-72220000D01*
X142554000Y-109431000D02*
X142808000Y-109431000D01*
X142554000Y-72220000D02*
X142554000Y-109431000D01*
X147380000Y-109431000D02*
X147380000Y-75141000D01*
X142300000Y-72220000D02*
X142554000Y-72220000D01*
X142046000Y-109431000D02*
X142300000Y-109431000D01*
X161985000Y-75014000D02*
X161985000Y-109304000D01*
X146618000Y-109431000D02*
X146872000Y-109431000D01*
X142046000Y-72220000D02*
X142046000Y-109431000D01*
X141792000Y-72220000D02*
X142046000Y-72220000D01*
X141792000Y-109431000D02*
X141792000Y-72220000D01*
X141538000Y-72220000D02*
X141538000Y-109431000D01*
X141284000Y-72220000D02*
X141538000Y-72220000D01*
X146618000Y-75141000D02*
X146618000Y-109431000D01*
X141284000Y-109431000D02*
X141284000Y-72220000D01*
X141030000Y-109431000D02*
X141284000Y-109431000D01*
X137982000Y-72220000D02*
X137982000Y-109431000D01*
X145348000Y-72220000D02*
X145602000Y-72220000D01*
X136458000Y-109431000D02*
X136712000Y-109431000D01*
X155762000Y-92413000D02*
X155762000Y-109431000D01*
X154111000Y-75014000D02*
X153857000Y-75014000D01*
X137728000Y-72220000D02*
X137982000Y-72220000D01*
X172145000Y-109304000D02*
X171891000Y-109304000D01*
X141538000Y-109431000D02*
X141792000Y-109431000D01*
X137220000Y-72220000D02*
X137474000Y-72220000D01*
X173161000Y-70451510D02*
X173161000Y-109304000D01*
X139252000Y-72220000D02*
X139506000Y-72220000D01*
X137220000Y-109431000D02*
X137220000Y-72220000D01*
X135451510Y-71575490D02*
X135451510Y-109431000D01*
X145856000Y-109431000D02*
X145856000Y-75141000D01*
X136966000Y-109431000D02*
X137220000Y-109431000D01*
X155254000Y-92413000D02*
X155254000Y-109431000D01*
X136966000Y-72220000D02*
X136966000Y-109431000D01*
X173415000Y-109304000D02*
X173415000Y-70451510D01*
X139760000Y-72220000D02*
X140014000Y-72220000D01*
X140268000Y-72220000D02*
X140522000Y-72220000D01*
X136712000Y-72220000D02*
X136966000Y-72220000D01*
X154492000Y-109431000D02*
X154492000Y-92413000D01*
X137728000Y-109431000D02*
X137728000Y-72220000D01*
X172145000Y-70451510D02*
X172145000Y-109304000D01*
X140776000Y-109431000D02*
X140776000Y-72220000D01*
X135451510Y-109431000D02*
X135696000Y-109431000D01*
X157286000Y-109650000D02*
X174431000Y-109650000D01*
X136712000Y-109431000D02*
X136712000Y-72220000D01*
X172907000Y-109304000D02*
X172907000Y-70451510D01*
X145094000Y-109431000D02*
X145348000Y-109431000D01*
X136809500Y-71500000D02*
X135527000Y-71500000D01*
X156016000Y-109431000D02*
X156016000Y-92413000D01*
X136204000Y-72220000D02*
X136458000Y-72220000D01*
X157032000Y-109431000D02*
X157032000Y-91397000D01*
X140014000Y-72220000D02*
X140014000Y-109431000D01*
X135527000Y-71500000D02*
X135451510Y-71575490D01*
X155254000Y-109431000D02*
X155508000Y-109431000D01*
X135696000Y-72220000D02*
X135950000Y-72220000D01*
X172907000Y-70451510D02*
X172653000Y-70451510D01*
X140268000Y-109431000D02*
X140268000Y-72220000D01*
X136204000Y-109431000D02*
X136204000Y-72220000D01*
X144840000Y-72220000D02*
X145094000Y-72220000D01*
X153603000Y-75014000D02*
X153349000Y-75014000D01*
X135696000Y-109431000D02*
X135696000Y-72220000D01*
X155508000Y-92413000D02*
X155762000Y-92413000D01*
X138744000Y-109431000D02*
X138744000Y-72220000D01*
X140522000Y-72220000D02*
X140522000Y-109431000D01*
X135950000Y-109431000D02*
X136204000Y-109431000D01*
X156778000Y-91905000D02*
X156778000Y-109431000D01*
X137474000Y-72220000D02*
X137474000Y-109431000D01*
X172653000Y-109304000D02*
X172399000Y-109304000D01*
X160715000Y-109304000D02*
X160715000Y-75014000D01*
X138744000Y-72220000D02*
X138998000Y-72220000D01*
X137474000Y-109431000D02*
X137728000Y-109431000D01*
X157286000Y-91397000D02*
X157286000Y-109650000D01*
X160715000Y-75014000D02*
X160461000Y-75014000D01*
X139506000Y-72220000D02*
X139506000Y-109431000D01*
X142300000Y-109431000D02*
X142300000Y-72220000D01*
X153349000Y-75014000D02*
X153349000Y-88222000D01*
X136458000Y-72220000D02*
X136458000Y-109431000D01*
X154492000Y-92413000D02*
X154746000Y-92413000D01*
X137982000Y-109431000D02*
X138236000Y-109431000D01*
X171891000Y-109304000D02*
X171891000Y-70451510D01*
X138236000Y-109431000D02*
X138236000Y-72220000D01*
X171637000Y-70451510D02*
X171637000Y-109304000D01*
X138236000Y-72220000D02*
X138490000Y-72220000D01*
X138490000Y-72220000D02*
X138490000Y-109431000D01*
X138490000Y-109431000D02*
X138744000Y-109431000D01*
X140014000Y-109431000D02*
X140268000Y-109431000D01*
X138998000Y-72220000D02*
X138998000Y-109431000D01*
X146364000Y-75141000D02*
X146618000Y-75141000D01*
X138998000Y-109431000D02*
X139252000Y-109431000D01*
X139252000Y-109431000D02*
X139252000Y-72220000D01*
X139506000Y-109431000D02*
X139760000Y-109431000D01*
X139760000Y-109431000D02*
X139760000Y-72220000D01*
X140522000Y-109431000D02*
X140776000Y-109431000D01*
X140776000Y-72220000D02*
X141030000Y-72220000D01*
X135950000Y-72220000D02*
X135950000Y-109431000D01*
X173923000Y-109304000D02*
X173923000Y-70451510D01*
X141030000Y-72220000D02*
X141030000Y-109431000D01*
X161477000Y-109304000D02*
X161223000Y-109304000D01*
X147380000Y-75141000D02*
X147634000Y-75141000D01*
X147634000Y-75141000D02*
X147634000Y-109431000D01*
X162239000Y-109304000D02*
X162239000Y-75014000D01*
X147634000Y-109431000D02*
X147888000Y-109431000D01*
X147888000Y-109431000D02*
X147888000Y-75141000D01*
X147888000Y-75141000D02*
X148142000Y-75141000D01*
X162239000Y-75014000D02*
X161985000Y-75014000D01*
X148142000Y-75141000D02*
X148142000Y-109431000D01*
X148142000Y-109431000D02*
X148396000Y-109431000D01*
X148396000Y-109431000D02*
X148396000Y-75141000D01*
X148396000Y-75141000D02*
X148650000Y-75141000D01*
X159953000Y-75014000D02*
X159953000Y-109304000D01*
X148650000Y-75141000D02*
X148650000Y-109431000D01*
X162747000Y-75014000D02*
X162493000Y-75014000D01*
X148650000Y-109431000D02*
X148904000Y-109431000D01*
X148904000Y-109431000D02*
X148904000Y-75141000D01*
X161985000Y-109304000D02*
X161731000Y-109304000D01*
X148904000Y-75141000D02*
X149158000Y-75141000D01*
X149158000Y-75141000D02*
X149158000Y-109431000D01*
X149158000Y-109431000D02*
X149412000Y-109431000D01*
X160969000Y-109304000D02*
X160715000Y-109304000D01*
X169351000Y-109304000D02*
X169351000Y-70451510D01*
X149412000Y-109431000D02*
X149412000Y-75141000D01*
X149412000Y-75141000D02*
X149666000Y-75141000D01*
X149666000Y-75141000D02*
X149666000Y-109431000D01*
X149666000Y-109431000D02*
X149920000Y-109431000D01*
X160207000Y-109304000D02*
X160207000Y-75014000D01*
X149920000Y-109431000D02*
X149920000Y-75141000D01*
X149920000Y-75141000D02*
X150174000Y-75141000D01*
X160207000Y-75014000D02*
X159953000Y-75014000D01*
X150174000Y-75141000D02*
X150174000Y-109431000D01*
X161223000Y-75014000D02*
X160969000Y-75014000D01*
X150174000Y-109431000D02*
X150428000Y-109431000D01*
X161223000Y-109304000D02*
X161223000Y-75014000D01*
X150428000Y-109431000D02*
X150428000Y-75141000D01*
X150428000Y-75141000D02*
X150682000Y-75141000D01*
X150682000Y-75141000D02*
X150682000Y-109431000D01*
X163255000Y-75014000D02*
X163001000Y-75014000D01*
X150682000Y-109431000D02*
X150936000Y-109431000D01*
X160461000Y-75014000D02*
X160461000Y-109304000D01*
X150936000Y-109431000D02*
X150936000Y-75141000D01*
X150936000Y-75141000D02*
X151190000Y-75141000D01*
X161731000Y-109304000D02*
X161731000Y-75014000D01*
X151190000Y-75141000D02*
X151190000Y-109431000D01*
X162747000Y-109304000D02*
X162747000Y-75014000D01*
X151190000Y-109431000D02*
X151444000Y-109431000D01*
X160461000Y-109304000D02*
X160207000Y-109304000D01*
X151444000Y-109431000D02*
X151444000Y-75141000D01*
X151444000Y-75141000D02*
X151698000Y-75141000D01*
X161477000Y-75014000D02*
X161477000Y-109304000D01*
X151698000Y-75141000D02*
X151698000Y-109431000D01*
X151698000Y-109431000D02*
X151952000Y-109431000D01*
X160969000Y-75014000D02*
X160969000Y-109304000D01*
X151952000Y-109431000D02*
X151952000Y-75141000D01*
X151952000Y-75141000D02*
X152206000Y-75141000D01*
X152206000Y-75141000D02*
X152206000Y-109431000D01*
X152206000Y-109431000D02*
X152460000Y-109431000D01*
X152460000Y-109431000D02*
X152460000Y-90889000D01*
X152460000Y-90889000D02*
X152714000Y-90889000D01*
X152714000Y-90889000D02*
X152714000Y-109431000D01*
X152714000Y-109431000D02*
X152968000Y-109431000D01*
X152968000Y-109431000D02*
X152968000Y-91651000D01*
X152968000Y-91651000D02*
X153222000Y-91651000D01*
X153222000Y-91651000D02*
X153222000Y-109431000D01*
X163001000Y-75014000D02*
X163001000Y-109304000D01*
X153222000Y-109431000D02*
X153476000Y-109431000D01*
X153476000Y-109431000D02*
X153476000Y-92032000D01*
X159953000Y-109304000D02*
X159699000Y-109304000D01*
X153476000Y-92032000D02*
X153730000Y-92032000D01*
X153730000Y-92032000D02*
X153730000Y-109431000D01*
X153730000Y-109431000D02*
X153984000Y-109431000D01*
X163001000Y-109304000D02*
X162747000Y-109304000D01*
X153984000Y-109431000D02*
X153984000Y-92286000D01*
X153984000Y-92286000D02*
X154238000Y-92286000D01*
X162493000Y-109304000D02*
X162239000Y-109304000D01*
X154238000Y-92286000D02*
X154238000Y-109431000D01*
X154238000Y-109431000D02*
X154492000Y-109431000D01*
X154746000Y-92413000D02*
X154746000Y-109431000D01*
X154746000Y-109431000D02*
X155000000Y-109431000D01*
X155000000Y-109431000D02*
X155000000Y-92413000D01*
X155000000Y-92413000D02*
X155254000Y-92413000D01*
X155508000Y-109431000D02*
X155508000Y-92413000D01*
X155762000Y-109431000D02*
X156016000Y-109431000D01*
X156016000Y-92413000D02*
X156270000Y-92413000D01*
X156270000Y-92413000D02*
X156270000Y-109431000D01*
X156270000Y-109431000D02*
X156524000Y-109431000D01*
X156524000Y-109431000D02*
X156524000Y-91905000D01*
X156524000Y-91905000D02*
X156778000Y-91905000D01*
X156778000Y-109431000D02*
X157032000Y-109431000D01*
X157032000Y-91397000D02*
X157286000Y-91397000D01*
X174431000Y-109650000D02*
X174431000Y-70451510D01*
X174431000Y-70451510D02*
X174177000Y-70451510D01*
X174177000Y-70451510D02*
X174177000Y-109304000D01*
X174177000Y-109304000D02*
X173923000Y-109304000D01*
X173923000Y-70451510D02*
X173669000Y-70451510D01*
X173669000Y-70451510D02*
X173669000Y-109304000D01*
X173669000Y-109304000D02*
X173415000Y-109304000D01*
X173415000Y-70451510D02*
X173161000Y-70451510D01*
X173161000Y-109304000D02*
X172907000Y-109304000D01*
X172653000Y-70451510D02*
X172653000Y-109304000D01*
X172399000Y-109304000D02*
X172399000Y-70451510D01*
X172399000Y-70451510D02*
X172145000Y-70451510D01*
X171891000Y-70451510D02*
X171637000Y-70451510D01*
X152414000Y-74520000D02*
X152527000Y-74633000D01*
X152400000Y-74520000D02*
X152414000Y-74520000D01*
X151000000Y-72700000D02*
X151000000Y-72223000D01*
X151070000Y-71310000D02*
X151070000Y-72410000D01*
X150360000Y-70600000D02*
X151070000Y-71310000D01*
X138400000Y-70600000D02*
X150360000Y-70600000D01*
X137195200Y-71500000D02*
X137500000Y-71500000D01*
X137500000Y-71500000D02*
X138400000Y-70600000D01*
D17*
X150635000Y-71975000D02*
X151070000Y-72410000D01*
X147000000Y-71975000D02*
X150635000Y-71975000D01*
D16*
X154459999Y-71560001D02*
X153610000Y-72410000D01*
X154650501Y-71369499D02*
X154459999Y-71560001D01*
X161194499Y-71369499D02*
X154650501Y-71369499D01*
X161800000Y-71975000D02*
X161194499Y-71369499D01*
X162500000Y-71975000D02*
X161800000Y-71975000D01*
M02*
