G04 #@! TF.GenerationSoftware,KiCad,Pcbnew,(5.1.5)-3*
G04 #@! TF.CreationDate,2020-10-16T21:55:23+02:00*
G04 #@! TF.ProjectId,_Level,b54c6576-656c-42e6-9b69-6361645f7063,rev?*
G04 #@! TF.SameCoordinates,Original*
G04 #@! TF.FileFunction,Legend,Top*
G04 #@! TF.FilePolarity,Positive*
%FSLAX46Y46*%
G04 Gerber Fmt 4.6, Leading zero omitted, Abs format (unit mm)*
G04 Created by KiCad (PCBNEW (5.1.5)-3) date 2020-10-16 21:55:23*
%MOMM*%
%LPD*%
G04 APERTURE LIST*
%ADD10C,0.120000*%
%ADD11C,0.150000*%
G04 APERTURE END LIST*
D10*
X149740000Y-73740000D02*
X149740000Y-72410000D01*
X151070000Y-73740000D02*
X149740000Y-73740000D01*
X152340000Y-73740000D02*
X152340000Y-71080000D01*
X152340000Y-71080000D02*
X160020000Y-71080000D01*
X152340000Y-73740000D02*
X160020000Y-73740000D01*
X160020000Y-73740000D02*
X160020000Y-71080000D01*
X163210000Y-73261252D02*
X163210000Y-72738748D01*
X161790000Y-73261252D02*
X161790000Y-72738748D01*
X146290000Y-72738748D02*
X146290000Y-73261252D01*
X147710000Y-72738748D02*
X147710000Y-73261252D01*
D11*
X154536666Y-74462380D02*
X154536666Y-75176666D01*
X154489047Y-75319523D01*
X154393809Y-75414761D01*
X154250952Y-75462380D01*
X154155714Y-75462380D01*
X154965238Y-74557619D02*
X155012857Y-74510000D01*
X155108095Y-74462380D01*
X155346190Y-74462380D01*
X155441428Y-74510000D01*
X155489047Y-74557619D01*
X155536666Y-74652857D01*
X155536666Y-74748095D01*
X155489047Y-74890952D01*
X154917619Y-75462380D01*
X155536666Y-75462380D01*
X162333333Y-76052380D02*
X162000000Y-75576190D01*
X161761904Y-76052380D02*
X161761904Y-75052380D01*
X162142857Y-75052380D01*
X162238095Y-75100000D01*
X162285714Y-75147619D01*
X162333333Y-75242857D01*
X162333333Y-75385714D01*
X162285714Y-75480952D01*
X162238095Y-75528571D01*
X162142857Y-75576190D01*
X161761904Y-75576190D01*
X162714285Y-75147619D02*
X162761904Y-75100000D01*
X162857142Y-75052380D01*
X163095238Y-75052380D01*
X163190476Y-75100000D01*
X163238095Y-75147619D01*
X163285714Y-75242857D01*
X163285714Y-75338095D01*
X163238095Y-75480952D01*
X162666666Y-76052380D01*
X163285714Y-76052380D01*
X146833333Y-76052380D02*
X146500000Y-75576190D01*
X146261904Y-76052380D02*
X146261904Y-75052380D01*
X146642857Y-75052380D01*
X146738095Y-75100000D01*
X146785714Y-75147619D01*
X146833333Y-75242857D01*
X146833333Y-75385714D01*
X146785714Y-75480952D01*
X146738095Y-75528571D01*
X146642857Y-75576190D01*
X146261904Y-75576190D01*
X147785714Y-76052380D02*
X147214285Y-76052380D01*
X147500000Y-76052380D02*
X147500000Y-75052380D01*
X147404761Y-75195238D01*
X147309523Y-75290476D01*
X147214285Y-75338095D01*
M02*
